<?xml version="1.0" encoding="UTF-8" standalone="no"?>
<!DOCTYPE svg PUBLIC "-//W3C//DTD SVG 1.1//EN"
 "http://www.w3.org/Graphics/SVG/1.1/DTD/svg11.dtd">
<!-- Generated by graphviz version 2.40.1 (20161225.0304)
 -->
<!-- Title: dependencies Pages: 1 -->
<svg width="3409pt" height="284pt"
 viewBox="0.00 0.00 3409.00 284.00" xmlns="http://www.w3.org/2000/svg" xmlns:xlink="http://www.w3.org/1999/xlink">
<g id="graph0" class="graph" transform="scale(1 1) rotate(0) translate(4 280)">
<title>dependencies</title>
<polygon fill="#ffffff" stroke="transparent" points="-4,4 -4,-280 3405,-280 3405,4 -4,4"/>
<text text-anchor="start" x="1679.5091" y="-42.4" font-family="sans-serif" font-weight="bold" font-size="14.00" fill="#000000">Legend</text>
<polygon fill="#ffffb3" stroke="transparent" points="1466.5,-10 1466.5,-30 1486.5,-30 1486.5,-10 1466.5,-10"/>
<text text-anchor="start" x="1490.129" y="-15.4" font-family="sans-serif" font-size="14.00" fill="#000000"> &#160;Declarations</text>
<polygon fill="#8dd3c7" stroke="transparent" points="1579.5,-10 1579.5,-30 1599.5,-30 1599.5,-10 1579.5,-10"/>
<text text-anchor="start" x="1603.2251" y="-15.4" font-family="sans-serif" font-size="14.00" fill="#000000"> &#160;Module</text>
<polygon fill="#80b1d3" stroke="transparent" points="1665.5,-10 1665.5,-30 1685.5,-30 1685.5,-10 1665.5,-10"/>
<text text-anchor="start" x="1689.2812" y="-15.4" font-family="sans-serif" font-size="14.00" fill="#000000"> &#160;Bootstrap</text>
<polygon fill="#fdb462" stroke="transparent" points="1762.5,-10 1762.5,-30 1782.5,-30 1782.5,-10 1762.5,-10"/>
<text text-anchor="start" x="1786.1732" y="-15.4" font-family="sans-serif" font-size="14.00" fill="#000000"> &#160;Providers</text>
<polygon fill="#fb8072" stroke="transparent" points="1858.5,-10 1858.5,-30 1878.5,-30 1878.5,-10 1858.5,-10"/>
<text text-anchor="start" x="1882.2258" y="-15.4" font-family="sans-serif" font-size="14.00" fill="#000000"> &#160;Exports</text>
<g id="clust1" class="cluster">
<title>cluster_AppModule</title>
<polygon fill="none" stroke="#000000" stroke-dasharray="1,5" points="8,-70 8,-268 3393,-268 3393,-70 8,-70"/>
</g>
<g id="clust2" class="cluster">
<title>cluster_AppModule_declarations</title>
<polygon fill="none" stroke="#000000" points="529,-78 529,-130 3385,-130 3385,-78 529,-78"/>
</g>
<g id="clust23" class="cluster">
<title>cluster_AppModule_bootstrap</title>
<polygon fill="none" stroke="#000000" points="1598,-208 1598,-260 1722,-260 1722,-208 1598,-208"/>
</g>
<g id="clust24" class="cluster">
<title>cluster_AppModule_providers</title>
<polygon fill="none" stroke="#000000" points="16,-78 16,-130 521,-130 521,-78 16,-78"/>
</g>
<!-- AppComponent -->
<g id="node1" class="node">
<title>AppComponent</title>
<polygon fill="#ffffb3" stroke="#000000" points="3376.9399,-122 3271.0601,-122 3271.0601,-86 3376.9399,-86 3376.9399,-122"/>
<text text-anchor="middle" x="3324" y="-99.8" font-family="Times,serif" font-size="14.00" fill="#000000">AppComponent</text>
</g>
<!-- AppModule -->
<g id="node19" class="node">
<title>AppModule</title>
<polygon fill="#8dd3c7" stroke="#000000" points="1701.6571,-187 1698.6571,-191 1677.6571,-191 1674.6571,-187 1618.3429,-187 1618.3429,-151 1701.6571,-151 1701.6571,-187"/>
<text text-anchor="middle" x="1660" y="-164.8" font-family="Times,serif" font-size="14.00" fill="#000000">AppModule</text>
</g>
<!-- AppComponent&#45;&gt;AppModule -->
<g id="edge1" class="edge">
<title>AppComponent&#45;&gt;AppModule</title>
<path fill="none" stroke="#000000" d="M3324,-122.1532C3324,-145.7566 3324,-184 3324,-184 3324,-184 1711.965,-184 1711.965,-184"/>
<polygon fill="#000000" stroke="#000000" points="1711.9651,-180.5001 1701.965,-184 1711.965,-187.5001 1711.9651,-180.5001"/>
</g>
<!-- DashboardComponent -->
<g id="node2" class="node">
<title>DashboardComponent</title>
<polygon fill="#ffffb3" stroke="#000000" points="3252.9734,-122 3111.0266,-122 3111.0266,-86 3252.9734,-86 3252.9734,-122"/>
<text text-anchor="middle" x="3182" y="-99.8" font-family="Times,serif" font-size="14.00" fill="#000000">DashboardComponent</text>
</g>
<!-- DashboardComponent&#45;&gt;AppModule -->
<g id="edge2" class="edge">
<title>DashboardComponent&#45;&gt;AppModule</title>
<path fill="none" stroke="#000000" d="M3182,-122.2479C3182,-145.0179 3182,-181 3182,-181 3182,-181 1711.8965,-181 1711.8965,-181"/>
<polygon fill="#000000" stroke="#000000" points="1711.8965,-177.5001 1701.8965,-181 1711.8964,-184.5001 1711.8965,-177.5001"/>
</g>
<!-- DataSummaryComponent -->
<g id="node3" class="node">
<title>DataSummaryComponent</title>
<polygon fill="#ffffb3" stroke="#000000" points="3093.1979,-122 2930.8021,-122 2930.8021,-86 3093.1979,-86 3093.1979,-122"/>
<text text-anchor="middle" x="3012" y="-99.8" font-family="Times,serif" font-size="14.00" fill="#000000">DataSummaryComponent</text>
</g>
<!-- DataSummaryComponent&#45;&gt;AppModule -->
<g id="edge3" class="edge">
<title>DataSummaryComponent&#45;&gt;AppModule</title>
<path fill="none" stroke="#000000" d="M3012,-122.2921C3012,-144.2057 3012,-178 3012,-178 3012,-178 1711.9452,-178 1711.9452,-178"/>
<polygon fill="#000000" stroke="#000000" points="1711.9453,-174.5001 1701.9452,-178 1711.9452,-181.5001 1711.9453,-174.5001"/>
</g>
<!-- DocDetailsComponent -->
<g id="node4" class="node">
<title>DocDetailsComponent</title>
<polygon fill="#ffffb3" stroke="#000000" points="2913.3061,-122 2768.6939,-122 2768.6939,-86 2913.3061,-86 2913.3061,-122"/>
<text text-anchor="middle" x="2841" y="-99.8" font-family="Times,serif" font-size="14.00" fill="#000000">DocDetailsComponent</text>
</g>
<!-- DocDetailsComponent&#45;&gt;AppModule -->
<g id="edge4" class="edge">
<title>DocDetailsComponent&#45;&gt;AppModule</title>
<path fill="none" stroke="#000000" d="M2841,-122.0267C2841,-142.7672 2841,-174 2841,-174 2841,-174 1711.6855,-174 1711.6855,-174"/>
<polygon fill="#000000" stroke="#000000" points="1711.6856,-170.5001 1701.6855,-174 1711.6855,-177.5001 1711.6856,-170.5001"/>
</g>
<!-- DocListComponent -->
<g id="node5" class="node">
<title>DocListComponent</title>
<polygon fill="#ffffb3" stroke="#000000" points="2751.4327,-122 2624.5673,-122 2624.5673,-86 2751.4327,-86 2751.4327,-122"/>
<text text-anchor="middle" x="2688" y="-99.8" font-family="Times,serif" font-size="14.00" fill="#000000">DocListComponent</text>
</g>
<!-- DocListComponent&#45;&gt;AppModule -->
<g id="edge5" class="edge">
<title>DocListComponent&#45;&gt;AppModule</title>
<path fill="none" stroke="#000000" d="M2688,-122.308C2688,-142.1455 2688,-171 2688,-171 2688,-171 1711.8931,-171 1711.8931,-171"/>
<polygon fill="#000000" stroke="#000000" points="1711.8932,-167.5001 1701.8931,-171 1711.8931,-174.5001 1711.8932,-167.5001"/>
</g>
<!-- DocNavigationComponent -->
<g id="node6" class="node">
<title>DocNavigationComponent</title>
<polygon fill="#ffffb3" stroke="#000000" points="2606.3613,-122 2439.6387,-122 2439.6387,-86 2606.3613,-86 2606.3613,-122"/>
<text text-anchor="middle" x="2523" y="-99.8" font-family="Times,serif" font-size="14.00" fill="#000000">DocNavigationComponent</text>
</g>
<!-- DocNavigationComponent&#45;&gt;AppModule -->
<g id="edge6" class="edge">
<title>DocNavigationComponent&#45;&gt;AppModule</title>
<path fill="none" stroke="#000000" d="M2523,-122.1686C2523,-141.0898 2523,-168 2523,-168 2523,-168 1711.9159,-168 1711.9159,-168"/>
<polygon fill="#000000" stroke="#000000" points="1711.916,-164.5001 1701.9159,-168 1711.9159,-171.5001 1711.916,-164.5001"/>
</g>
<!-- DocumentFormComponent -->
<g id="node7" class="node">
<title>DocumentFormComponent</title>
<polygon fill="#ffffb3" stroke="#000000" points="2421.9832,-122 2252.0168,-122 2252.0168,-86 2421.9832,-86 2421.9832,-122"/>
<text text-anchor="middle" x="2337" y="-99.8" font-family="Times,serif" font-size="14.00" fill="#000000">DocumentFormComponent</text>
</g>
<!-- DocumentFormComponent&#45;&gt;AppModule -->
<g id="edge7" class="edge">
<title>DocumentFormComponent&#45;&gt;AppModule</title>
<path fill="none" stroke="#000000" d="M2337,-122.302C2337,-140.2699 2337,-165 2337,-165 2337,-165 1711.8385,-165 1711.8385,-165"/>
<polygon fill="#000000" stroke="#000000" points="1711.8385,-161.5001 1701.8385,-165 1711.8384,-168.5001 1711.8385,-161.5001"/>
</g>
<!-- DocumentsComponent -->
<g id="node8" class="node">
<title>DocumentsComponent</title>
<polygon fill="#ffffb3" stroke="#000000" points="2233.594,-122 2088.406,-122 2088.406,-86 2233.594,-86 2233.594,-122"/>
<text text-anchor="middle" x="2161" y="-99.8" font-family="Times,serif" font-size="14.00" fill="#000000">DocumentsComponent</text>
</g>
<!-- DocumentsComponent&#45;&gt;AppModule -->
<g id="edge8" class="edge">
<title>DocumentsComponent&#45;&gt;AppModule</title>
<path fill="none" stroke="#000000" d="M2161,-122.0352C2161,-138.7344 2161,-161 2161,-161 2161,-161 1711.8533,-161 1711.8533,-161"/>
<polygon fill="#000000" stroke="#000000" points="1711.8533,-157.5001 1701.8533,-161 1711.8532,-164.5001 1711.8533,-157.5001"/>
</g>
<!-- ImportControlComponent -->
<g id="node9" class="node">
<title>ImportControlComponent</title>
<polygon fill="#ffffb3" stroke="#000000" points="2070.2133,-122 1907.7867,-122 1907.7867,-86 2070.2133,-86 2070.2133,-122"/>
<text text-anchor="middle" x="1989" y="-99.8" font-family="Times,serif" font-size="14.00" fill="#000000">ImportControlComponent</text>
</g>
<!-- ImportControlComponent&#45;&gt;AppModule -->
<g id="edge9" class="edge">
<title>ImportControlComponent&#45;&gt;AppModule</title>
<path fill="none" stroke="#000000" d="M1989,-122.2819C1989,-137.9478 1989,-158 1989,-158 1989,-158 1711.6681,-158 1711.6681,-158"/>
<polygon fill="#000000" stroke="#000000" points="1711.6681,-154.5001 1701.6681,-158 1711.668,-161.5001 1711.6681,-154.5001"/>
</g>
<!-- NavigationComponent -->
<g id="node10" class="node">
<title>NavigationComponent</title>
<polygon fill="#ffffb3" stroke="#000000" points="1889.5407,-122 1746.4593,-122 1746.4593,-86 1889.5407,-86 1889.5407,-122"/>
<text text-anchor="middle" x="1818" y="-99.8" font-family="Times,serif" font-size="14.00" fill="#000000">NavigationComponent</text>
</g>
<!-- NavigationComponent&#45;&gt;AppModule -->
<g id="edge10" class="edge">
<title>NavigationComponent&#45;&gt;AppModule</title>
<path fill="none" stroke="#000000" d="M1818,-122.1243C1818,-136.7832 1818,-155 1818,-155 1818,-155 1711.9263,-155 1711.9263,-155"/>
<polygon fill="#000000" stroke="#000000" points="1711.9263,-151.5001 1701.9263,-155 1711.9262,-158.5001 1711.9263,-151.5001"/>
</g>
<!-- OverviewComponent -->
<g id="node11" class="node">
<title>OverviewComponent</title>
<polygon fill="#ffffb3" stroke="#000000" points="1728.0268,-122 1591.9732,-122 1591.9732,-86 1728.0268,-86 1728.0268,-122"/>
<text text-anchor="middle" x="1660" y="-99.8" font-family="Times,serif" font-size="14.00" fill="#000000">OverviewComponent</text>
</g>
<!-- OverviewComponent&#45;&gt;AppModule -->
<g id="edge11" class="edge">
<title>OverviewComponent&#45;&gt;AppModule</title>
<path fill="none" stroke="#000000" d="M1660,-122.1061C1660,-122.1061 1660,-140.991 1660,-140.991"/>
<polygon fill="#000000" stroke="#000000" points="1656.5001,-140.9909 1660,-150.991 1663.5001,-140.991 1656.5001,-140.9909"/>
</g>
<!-- PdfFrameComponent -->
<g id="node12" class="node">
<title>PdfFrameComponent</title>
<polygon fill="#ffffb3" stroke="#000000" points="1573.0394,-122 1436.9606,-122 1436.9606,-86 1573.0394,-86 1573.0394,-122"/>
<text text-anchor="middle" x="1505" y="-99.8" font-family="Times,serif" font-size="14.00" fill="#000000">PdfFrameComponent</text>
</g>
<!-- PdfFrameComponent&#45;&gt;AppModule -->
<g id="edge12" class="edge">
<title>PdfFrameComponent&#45;&gt;AppModule</title>
<path fill="none" stroke="#000000" d="M1505,-122.1243C1505,-136.7832 1505,-155 1505,-155 1505,-155 1608.0548,-155 1608.0548,-155"/>
<polygon fill="#000000" stroke="#000000" points="1608.0548,-158.5001 1618.0548,-155 1608.0547,-151.5001 1608.0548,-158.5001"/>
</g>
<!-- PdfFrameScanComponent -->
<g id="node13" class="node">
<title>PdfFrameScanComponent</title>
<polygon fill="#ffffb3" stroke="#000000" points="1418.7506,-122 1255.2494,-122 1255.2494,-86 1418.7506,-86 1418.7506,-122"/>
<text text-anchor="middle" x="1337" y="-99.8" font-family="Times,serif" font-size="14.00" fill="#000000">PdfFrameScanComponent</text>
</g>
<!-- PdfFrameScanComponent&#45;&gt;AppModule -->
<g id="edge13" class="edge">
<title>PdfFrameScanComponent&#45;&gt;AppModule</title>
<path fill="none" stroke="#000000" d="M1337,-122.2819C1337,-137.9478 1337,-158 1337,-158 1337,-158 1608.1045,-158 1608.1045,-158"/>
<polygon fill="#000000" stroke="#000000" points="1608.1046,-161.5001 1618.1045,-158 1608.1045,-154.5001 1608.1046,-161.5001"/>
</g>
<!-- ScanComponent -->
<g id="node14" class="node">
<title>ScanComponent</title>
<polygon fill="#ffffb3" stroke="#000000" points="1237.0452,-122 1128.9548,-122 1128.9548,-86 1237.0452,-86 1237.0452,-122"/>
<text text-anchor="middle" x="1183" y="-99.8" font-family="Times,serif" font-size="14.00" fill="#000000">ScanComponent</text>
</g>
<!-- ScanComponent&#45;&gt;AppModule -->
<g id="edge14" class="edge">
<title>ScanComponent&#45;&gt;AppModule</title>
<path fill="none" stroke="#000000" d="M1183,-122.0352C1183,-138.7344 1183,-161 1183,-161 1183,-161 1608.0875,-161 1608.0875,-161"/>
<polygon fill="#000000" stroke="#000000" points="1608.0875,-164.5001 1618.0875,-161 1608.0875,-157.5001 1608.0875,-164.5001"/>
</g>
<!-- SigninComponent -->
<g id="node15" class="node">
<title>SigninComponent</title>
<polygon fill="#ffffb3" stroke="#000000" points="1110.8962,-122 993.1038,-122 993.1038,-86 1110.8962,-86 1110.8962,-122"/>
<text text-anchor="middle" x="1052" y="-99.8" font-family="Times,serif" font-size="14.00" fill="#000000">SigninComponent</text>
</g>
<!-- SigninComponent&#45;&gt;AppModule -->
<g id="edge15" class="edge">
<title>SigninComponent&#45;&gt;AppModule</title>
<path fill="none" stroke="#000000" d="M1052,-122.302C1052,-140.2699 1052,-165 1052,-165 1052,-165 1608.2097,-165 1608.2097,-165"/>
<polygon fill="#000000" stroke="#000000" points="1608.2097,-168.5001 1618.2097,-165 1608.2097,-161.5001 1608.2097,-168.5001"/>
</g>
<!-- SignupComponent -->
<g id="node16" class="node">
<title>SignupComponent</title>
<polygon fill="#ffffb3" stroke="#000000" points="975.5056,-122 854.4944,-122 854.4944,-86 975.5056,-86 975.5056,-122"/>
<text text-anchor="middle" x="915" y="-99.8" font-family="Times,serif" font-size="14.00" fill="#000000">SignupComponent</text>
</g>
<!-- SignupComponent&#45;&gt;AppModule -->
<g id="edge16" class="edge">
<title>SignupComponent&#45;&gt;AppModule</title>
<path fill="none" stroke="#000000" d="M915,-122.1686C915,-141.0898 915,-168 915,-168 915,-168 1608.0805,-168 1608.0805,-168"/>
<polygon fill="#000000" stroke="#000000" points="1608.0805,-171.5001 1618.0805,-168 1608.0804,-164.5001 1608.0805,-171.5001"/>
</g>
<!-- ToDoListComponent -->
<g id="node17" class="node">
<title>ToDoListComponent</title>
<polygon fill="#ffffb3" stroke="#000000" points="836.7702,-122 701.2298,-122 701.2298,-86 836.7702,-86 836.7702,-122"/>
<text text-anchor="middle" x="769" y="-99.8" font-family="Times,serif" font-size="14.00" fill="#000000">ToDoListComponent</text>
</g>
<!-- ToDoListComponent&#45;&gt;AppModule -->
<g id="edge17" class="edge">
<title>ToDoListComponent&#45;&gt;AppModule</title>
<path fill="none" stroke="#000000" d="M769,-122.308C769,-142.1455 769,-171 769,-171 769,-171 1608.2203,-171 1608.2203,-171"/>
<polygon fill="#000000" stroke="#000000" points="1608.2203,-174.5001 1618.2203,-171 1608.2203,-167.5001 1608.2203,-174.5001"/>
</g>
<!-- UserProfileComponent -->
<g id="node18" class="node">
<title>UserProfileComponent</title>
<polygon fill="#ffffb3" stroke="#000000" points="682.8585,-122 537.1415,-122 537.1415,-86 682.8585,-86 682.8585,-122"/>
<text text-anchor="middle" x="610" y="-99.8" font-family="Times,serif" font-size="14.00" fill="#000000">UserProfileComponent</text>
</g>
<!-- UserProfileComponent&#45;&gt;AppModule -->
<g id="edge18" class="edge">
<title>UserProfileComponent&#45;&gt;AppModule</title>
<path fill="none" stroke="#000000" d="M610,-122.0267C610,-142.7672 610,-174 610,-174 610,-174 1608.1908,-174 1608.1908,-174"/>
<polygon fill="#000000" stroke="#000000" points="1608.1908,-177.5001 1618.1908,-174 1608.1908,-170.5001 1608.1908,-177.5001"/>
</g>
<!-- AppComponent  -->
<g id="node20" class="node">
<title>AppComponent </title>
<polygon fill="#80b1d3" stroke="#000000" points="1714.439,-252 1605.561,-252 1605.561,-216 1714.439,-216 1714.439,-252"/>
<text text-anchor="middle" x="1660" y="-229.8" font-family="Times,serif" font-size="14.00" fill="#000000">AppComponent </text>
</g>
<!-- AppModule&#45;&gt;AppComponent  -->
<g id="edge19" class="edge">
<title>AppModule&#45;&gt;AppComponent </title>
<path fill="none" stroke="#000000" stroke-dasharray="1,5" d="M1660,-187.1061C1660,-187.1061 1660,-205.991 1660,-205.991"/>
<polygon fill="#000000" stroke="#000000" points="1656.5001,-205.9909 1660,-215.991 1663.5001,-205.991 1656.5001,-205.9909"/>
</g>
<!-- AuthService -->
<g id="node21" class="node">
<title>AuthService</title>
<ellipse fill="#fdb462" stroke="#000000" cx="454" cy="-104" rx="59.1083" ry="18"/>
<text text-anchor="middle" x="454" y="-99.8" font-family="Times,serif" font-size="14.00" fill="#000000">AuthService</text>
</g>
<!-- AuthService&#45;&gt;AppModule -->
<g id="edge20" class="edge">
<title>AuthService&#45;&gt;AppModule</title>
<path fill="none" stroke="#000000" d="M454,-122.2921C454,-144.2057 454,-178 454,-178 454,-178 1608.1365,-178 1608.1365,-178"/>
<polygon fill="#000000" stroke="#000000" points="1608.1366,-181.5001 1618.1365,-178 1608.1365,-174.5001 1608.1366,-181.5001"/>
</g>
<!-- DataModelService -->
<g id="node22" class="node">
<title>DataModelService</title>
<ellipse fill="#fdb462" stroke="#000000" cx="293" cy="-104" rx="83.3635" ry="18"/>
<text text-anchor="middle" x="293" y="-99.8" font-family="Times,serif" font-size="14.00" fill="#000000">DataModelService</text>
</g>
<!-- DataModelService&#45;&gt;AppModule -->
<g id="edge21" class="edge">
<title>DataModelService&#45;&gt;AppModule</title>
<path fill="none" stroke="#000000" d="M293,-122.2479C293,-145.0179 293,-181 293,-181 293,-181 1608.342,-181 1608.342,-181"/>
<polygon fill="#000000" stroke="#000000" points="1608.342,-184.5001 1618.342,-181 1608.342,-177.5001 1608.342,-184.5001"/>
</g>
<!-- DocumentsService -->
<g id="node23" class="node">
<title>DocumentsService</title>
<ellipse fill="#fdb462" stroke="#000000" cx="108" cy="-104" rx="83.947" ry="18"/>
<text text-anchor="middle" x="108" y="-99.8" font-family="Times,serif" font-size="14.00" fill="#000000">DocumentsService</text>
</g>
<!-- DocumentsService&#45;&gt;AppModule -->
<g id="edge22" class="edge">
<title>DocumentsService&#45;&gt;AppModule</title>
<path fill="none" stroke="#000000" d="M108,-122.1532C108,-145.7566 108,-184 108,-184 108,-184 1608.0862,-184 1608.0862,-184"/>
<polygon fill="#000000" stroke="#000000" points="1608.0862,-187.5001 1618.0862,-184 1608.0862,-180.5001 1608.0862,-187.5001"/>
</g>
</g>
</svg>
