<?xml version="1.0" encoding="UTF-8" standalone="no"?>
<!DOCTYPE svg PUBLIC "-//W3C//DTD SVG 1.1//EN"
 "http://www.w3.org/Graphics/SVG/1.1/DTD/svg11.dtd">
<!-- Generated by graphviz version 2.40.1 (20161225.0304)
 -->
<!-- Title: dependencies Pages: 1 -->
<svg width="2546pt" height="284pt"
 viewBox="0.00 0.00 2546.00 284.00" xmlns="http://www.w3.org/2000/svg" xmlns:xlink="http://www.w3.org/1999/xlink">
<g id="graph0" class="graph" transform="scale(1 1) rotate(0) translate(4 280)">
<title>dependencies</title>
<polygon fill="#ffffff" stroke="transparent" points="-4,4 -4,-280 2542,-280 2542,4 -4,4"/>
<text text-anchor="start" x="1248.0091" y="-42.4" font-family="sans-serif" font-weight="bold" font-size="14.00" fill="#000000">Legend</text>
<polygon fill="#ffffb3" stroke="transparent" points="1035,-10 1035,-30 1055,-30 1055,-10 1035,-10"/>
<text text-anchor="start" x="1058.629" y="-15.4" font-family="sans-serif" font-size="14.00" fill="#000000"> &#160;Declarations</text>
<polygon fill="#8dd3c7" stroke="transparent" points="1148,-10 1148,-30 1168,-30 1168,-10 1148,-10"/>
<text text-anchor="start" x="1171.7251" y="-15.4" font-family="sans-serif" font-size="14.00" fill="#000000"> &#160;Module</text>
<polygon fill="#80b1d3" stroke="transparent" points="1234,-10 1234,-30 1254,-30 1254,-10 1234,-10"/>
<text text-anchor="start" x="1257.7812" y="-15.4" font-family="sans-serif" font-size="14.00" fill="#000000"> &#160;Bootstrap</text>
<polygon fill="#fdb462" stroke="transparent" points="1331,-10 1331,-30 1351,-30 1351,-10 1331,-10"/>
<text text-anchor="start" x="1354.6732" y="-15.4" font-family="sans-serif" font-size="14.00" fill="#000000"> &#160;Providers</text>
<polygon fill="#fb8072" stroke="transparent" points="1427,-10 1427,-30 1447,-30 1447,-10 1427,-10"/>
<text text-anchor="start" x="1450.7258" y="-15.4" font-family="sans-serif" font-size="14.00" fill="#000000"> &#160;Exports</text>
<g id="clust1" class="cluster">
<title>cluster_AppModule</title>
<polygon fill="none" stroke="#000000" stroke-dasharray="1,5" points="8,-70 8,-268 2530,-268 2530,-70 8,-70"/>
</g>
<g id="clust2" class="cluster">
<title>cluster_AppModule_declarations</title>
<polygon fill="none" stroke="#000000" points="343,-78 343,-130 2522,-130 2522,-78 343,-78"/>
</g>
<g id="clust19" class="cluster">
<title>cluster_AppModule_bootstrap</title>
<polygon fill="none" stroke="#000000" points="1183,-208 1183,-260 1307,-260 1307,-208 1183,-208"/>
</g>
<g id="clust20" class="cluster">
<title>cluster_AppModule_providers</title>
<polygon fill="none" stroke="#000000" points="16,-78 16,-130 335,-130 335,-78 16,-78"/>
</g>
<!-- AppComponent -->
<g id="node1" class="node">
<title>AppComponent</title>
<polygon fill="#ffffb3" stroke="#000000" points="2513.9399,-122 2408.0601,-122 2408.0601,-86 2513.9399,-86 2513.9399,-122"/>
<text text-anchor="middle" x="2461" y="-99.8" font-family="Times,serif" font-size="14.00" fill="#000000">AppComponent</text>
</g>
<!-- AppModule -->
<g id="node15" class="node">
<title>AppModule</title>
<polygon fill="#8dd3c7" stroke="#000000" points="1286.6571,-187 1283.6571,-191 1262.6571,-191 1259.6571,-187 1203.3429,-187 1203.3429,-151 1286.6571,-151 1286.6571,-187"/>
<text text-anchor="middle" x="1245" y="-164.8" font-family="Times,serif" font-size="14.00" fill="#000000">AppModule</text>
</g>
<!-- AppComponent&#45;&gt;AppModule -->
<g id="edge1" class="edge">
<title>AppComponent&#45;&gt;AppModule</title>
<path fill="none" stroke="#000000" d="M2461,-122.3228C2461,-145.6602 2461,-183 2461,-183 2461,-183 1296.8575,-183 1296.8575,-183"/>
<polygon fill="#000000" stroke="#000000" points="1296.8575,-179.5001 1286.8575,-183 1296.8574,-186.5001 1296.8575,-179.5001"/>
</g>
<!-- DashboardComponent -->
<g id="node2" class="node">
<title>DashboardComponent</title>
<polygon fill="#ffffb3" stroke="#000000" points="2389.9734,-122 2248.0266,-122 2248.0266,-86 2389.9734,-86 2389.9734,-122"/>
<text text-anchor="middle" x="2319" y="-99.8" font-family="Times,serif" font-size="14.00" fill="#000000">DashboardComponent</text>
</g>
<!-- DashboardComponent&#45;&gt;AppModule -->
<g id="edge2" class="edge">
<title>DashboardComponent&#45;&gt;AppModule</title>
<path fill="none" stroke="#000000" d="M2319,-122.2921C2319,-144.2057 2319,-178 2319,-178 2319,-178 1296.7724,-178 1296.7724,-178"/>
<polygon fill="#000000" stroke="#000000" points="1296.7725,-174.5001 1286.7724,-178 1296.7724,-181.5001 1296.7725,-174.5001"/>
</g>
<!-- DataSummaryComponent -->
<g id="node3" class="node">
<title>DataSummaryComponent</title>
<polygon fill="#ffffb3" stroke="#000000" points="2230.1979,-122 2067.8021,-122 2067.8021,-86 2230.1979,-86 2230.1979,-122"/>
<text text-anchor="middle" x="2149" y="-99.8" font-family="Times,serif" font-size="14.00" fill="#000000">DataSummaryComponent</text>
</g>
<!-- DataSummaryComponent&#45;&gt;AppModule -->
<g id="edge3" class="edge">
<title>DataSummaryComponent&#45;&gt;AppModule</title>
<path fill="none" stroke="#000000" d="M2149,-122.0267C2149,-142.7672 2149,-174 2149,-174 2149,-174 1296.7888,-174 1296.7888,-174"/>
<polygon fill="#000000" stroke="#000000" points="1296.7888,-170.5001 1286.7888,-174 1296.7887,-177.5001 1296.7888,-170.5001"/>
</g>
<!-- DocDetailsComponent -->
<g id="node4" class="node">
<title>DocDetailsComponent</title>
<polygon fill="#ffffb3" stroke="#000000" points="2050.3061,-122 1905.6939,-122 1905.6939,-86 2050.3061,-86 2050.3061,-122"/>
<text text-anchor="middle" x="1978" y="-99.8" font-family="Times,serif" font-size="14.00" fill="#000000">DocDetailsComponent</text>
</g>
<!-- DocDetailsComponent&#45;&gt;AppModule -->
<g id="edge4" class="edge">
<title>DocDetailsComponent&#45;&gt;AppModule</title>
<path fill="none" stroke="#000000" d="M1978,-122.1061C1978,-141.3391 1978,-169 1978,-169 1978,-169 1296.7753,-169 1296.7753,-169"/>
<polygon fill="#000000" stroke="#000000" points="1296.7754,-165.5001 1286.7753,-169 1296.7753,-172.5001 1296.7754,-165.5001"/>
</g>
<!-- DocListComponent -->
<g id="node5" class="node">
<title>DocListComponent</title>
<polygon fill="#ffffb3" stroke="#000000" points="1888.4327,-122 1761.5673,-122 1761.5673,-86 1888.4327,-86 1888.4327,-122"/>
<text text-anchor="middle" x="1825" y="-99.8" font-family="Times,serif" font-size="14.00" fill="#000000">DocListComponent</text>
</g>
<!-- DocListComponent&#45;&gt;AppModule -->
<g id="edge5" class="edge">
<title>DocListComponent&#45;&gt;AppModule</title>
<path fill="none" stroke="#000000" d="M1825,-122.302C1825,-140.2699 1825,-165 1825,-165 1825,-165 1296.7122,-165 1296.7122,-165"/>
<polygon fill="#000000" stroke="#000000" points="1296.7122,-161.5001 1286.7122,-165 1296.7121,-168.5001 1296.7122,-161.5001"/>
</g>
<!-- DocNavigationComponent -->
<g id="node6" class="node">
<title>DocNavigationComponent</title>
<polygon fill="#ffffb3" stroke="#000000" points="1743.3613,-122 1576.6387,-122 1576.6387,-86 1743.3613,-86 1743.3613,-122"/>
<text text-anchor="middle" x="1660" y="-99.8" font-family="Times,serif" font-size="14.00" fill="#000000">DocNavigationComponent</text>
</g>
<!-- DocNavigationComponent&#45;&gt;AppModule -->
<g id="edge6" class="edge">
<title>DocNavigationComponent&#45;&gt;AppModule</title>
<path fill="none" stroke="#000000" d="M1660,-122.027C1660,-138.3976 1660,-160 1660,-160 1660,-160 1296.6919,-160 1296.6919,-160"/>
<polygon fill="#000000" stroke="#000000" points="1296.6919,-156.5001 1286.6919,-160 1296.6919,-163.5001 1296.6919,-156.5001"/>
</g>
<!-- DocumentsComponent -->
<g id="node7" class="node">
<title>DocumentsComponent</title>
<polygon fill="#ffffb3" stroke="#000000" points="1558.594,-122 1413.406,-122 1413.406,-86 1558.594,-86 1558.594,-122"/>
<text text-anchor="middle" x="1486" y="-99.8" font-family="Times,serif" font-size="14.00" fill="#000000">DocumentsComponent</text>
</g>
<!-- DocumentsComponent&#45;&gt;AppModule -->
<g id="edge7" class="edge">
<title>DocumentsComponent&#45;&gt;AppModule</title>
<path fill="none" stroke="#000000" d="M1486,-122.1871C1486,-137.1824 1486,-156 1486,-156 1486,-156 1296.7039,-156 1296.7039,-156"/>
<polygon fill="#000000" stroke="#000000" points="1296.7039,-152.5001 1286.7039,-156 1296.7038,-159.5001 1296.7039,-152.5001"/>
</g>
<!-- NavigationComponent -->
<g id="node8" class="node">
<title>NavigationComponent</title>
<polygon fill="#ffffb3" stroke="#000000" points="1395.5407,-122 1252.4593,-122 1252.4593,-86 1395.5407,-86 1395.5407,-122"/>
<text text-anchor="middle" x="1324" y="-99.8" font-family="Times,serif" font-size="14.00" fill="#000000">NavigationComponent</text>
</g>
<!-- NavigationComponent&#45;&gt;AppModule -->
<g id="edge8" class="edge">
<title>NavigationComponent&#45;&gt;AppModule</title>
<path fill="none" stroke="#000000" d="M1269.5291,-122.1061C1269.5291,-122.1061 1269.5291,-140.991 1269.5291,-140.991"/>
<polygon fill="#000000" stroke="#000000" points="1266.0292,-140.9909 1269.5291,-150.991 1273.0292,-140.991 1266.0292,-140.9909"/>
</g>
<!-- OverviewComponent -->
<g id="node9" class="node">
<title>OverviewComponent</title>
<polygon fill="#ffffb3" stroke="#000000" points="1234.0268,-122 1097.9732,-122 1097.9732,-86 1234.0268,-86 1234.0268,-122"/>
<text text-anchor="middle" x="1166" y="-99.8" font-family="Times,serif" font-size="14.00" fill="#000000">OverviewComponent</text>
</g>
<!-- OverviewComponent&#45;&gt;AppModule -->
<g id="edge9" class="edge">
<title>OverviewComponent&#45;&gt;AppModule</title>
<path fill="none" stroke="#000000" d="M1218.7174,-122.1061C1218.7174,-122.1061 1218.7174,-140.991 1218.7174,-140.991"/>
<polygon fill="#000000" stroke="#000000" points="1215.2175,-140.9909 1218.7174,-150.991 1222.2175,-140.991 1215.2175,-140.9909"/>
</g>
<!-- PdfFrameComponent -->
<g id="node10" class="node">
<title>PdfFrameComponent</title>
<polygon fill="#ffffb3" stroke="#000000" points="1079.0394,-122 942.9606,-122 942.9606,-86 1079.0394,-86 1079.0394,-122"/>
<text text-anchor="middle" x="1011" y="-99.8" font-family="Times,serif" font-size="14.00" fill="#000000">PdfFrameComponent</text>
</g>
<!-- PdfFrameComponent&#45;&gt;AppModule -->
<g id="edge10" class="edge">
<title>PdfFrameComponent&#45;&gt;AppModule</title>
<path fill="none" stroke="#000000" d="M1011,-122.1871C1011,-137.1824 1011,-156 1011,-156 1011,-156 1193.1655,-156 1193.1655,-156"/>
<polygon fill="#000000" stroke="#000000" points="1193.1655,-159.5001 1203.1655,-156 1193.1655,-152.5001 1193.1655,-159.5001"/>
</g>
<!-- SigninComponent -->
<g id="node11" class="node">
<title>SigninComponent</title>
<polygon fill="#ffffb3" stroke="#000000" points="924.8962,-122 807.1038,-122 807.1038,-86 924.8962,-86 924.8962,-122"/>
<text text-anchor="middle" x="866" y="-99.8" font-family="Times,serif" font-size="14.00" fill="#000000">SigninComponent</text>
</g>
<!-- SigninComponent&#45;&gt;AppModule -->
<g id="edge11" class="edge">
<title>SigninComponent&#45;&gt;AppModule</title>
<path fill="none" stroke="#000000" d="M866,-122.027C866,-138.3976 866,-160 866,-160 866,-160 1192.9923,-160 1192.9923,-160"/>
<polygon fill="#000000" stroke="#000000" points="1192.9923,-163.5001 1202.9923,-160 1192.9923,-156.5001 1192.9923,-163.5001"/>
</g>
<!-- SignupComponent -->
<g id="node12" class="node">
<title>SignupComponent</title>
<polygon fill="#ffffb3" stroke="#000000" points="789.5056,-122 668.4944,-122 668.4944,-86 789.5056,-86 789.5056,-122"/>
<text text-anchor="middle" x="729" y="-99.8" font-family="Times,serif" font-size="14.00" fill="#000000">SignupComponent</text>
</g>
<!-- SignupComponent&#45;&gt;AppModule -->
<g id="edge12" class="edge">
<title>SignupComponent&#45;&gt;AppModule</title>
<path fill="none" stroke="#000000" d="M729,-122.302C729,-140.2699 729,-165 729,-165 729,-165 1193.2106,-165 1193.2106,-165"/>
<polygon fill="#000000" stroke="#000000" points="1193.2107,-168.5001 1203.2106,-165 1193.2106,-161.5001 1193.2107,-168.5001"/>
</g>
<!-- ToDoListComponent -->
<g id="node13" class="node">
<title>ToDoListComponent</title>
<polygon fill="#ffffb3" stroke="#000000" points="650.7702,-122 515.2298,-122 515.2298,-86 650.7702,-86 650.7702,-122"/>
<text text-anchor="middle" x="583" y="-99.8" font-family="Times,serif" font-size="14.00" fill="#000000">ToDoListComponent</text>
</g>
<!-- ToDoListComponent&#45;&gt;AppModule -->
<g id="edge13" class="edge">
<title>ToDoListComponent&#45;&gt;AppModule</title>
<path fill="none" stroke="#000000" d="M583,-122.1061C583,-141.3391 583,-169 583,-169 583,-169 1193.3382,-169 1193.3382,-169"/>
<polygon fill="#000000" stroke="#000000" points="1193.3382,-172.5001 1203.3382,-169 1193.3381,-165.5001 1193.3382,-172.5001"/>
</g>
<!-- UserProfileComponent -->
<g id="node14" class="node">
<title>UserProfileComponent</title>
<polygon fill="#ffffb3" stroke="#000000" points="496.8585,-122 351.1415,-122 351.1415,-86 496.8585,-86 496.8585,-122"/>
<text text-anchor="middle" x="424" y="-99.8" font-family="Times,serif" font-size="14.00" fill="#000000">UserProfileComponent</text>
</g>
<!-- UserProfileComponent&#45;&gt;AppModule -->
<g id="edge14" class="edge">
<title>UserProfileComponent&#45;&gt;AppModule</title>
<path fill="none" stroke="#000000" d="M424,-122.0267C424,-142.7672 424,-174 424,-174 424,-174 1193.1578,-174 1193.1578,-174"/>
<polygon fill="#000000" stroke="#000000" points="1193.1578,-177.5001 1203.1578,-174 1193.1577,-170.5001 1193.1578,-177.5001"/>
</g>
<!-- AppComponent  -->
<g id="node16" class="node">
<title>AppComponent </title>
<polygon fill="#80b1d3" stroke="#000000" points="1299.439,-252 1190.561,-252 1190.561,-216 1299.439,-216 1299.439,-252"/>
<text text-anchor="middle" x="1245" y="-229.8" font-family="Times,serif" font-size="14.00" fill="#000000">AppComponent </text>
</g>
<!-- AppModule&#45;&gt;AppComponent  -->
<g id="edge15" class="edge">
<title>AppModule&#45;&gt;AppComponent </title>
<path fill="none" stroke="#000000" stroke-dasharray="1,5" d="M1245,-187.1061C1245,-187.1061 1245,-205.991 1245,-205.991"/>
<polygon fill="#000000" stroke="#000000" points="1241.5001,-205.9909 1245,-215.991 1248.5001,-205.991 1241.5001,-205.9909"/>
</g>
<!-- AuthService -->
<g id="node17" class="node">
<title>AuthService</title>
<ellipse fill="#fdb462" stroke="#000000" cx="268" cy="-104" rx="59.1083" ry="18"/>
<text text-anchor="middle" x="268" y="-99.8" font-family="Times,serif" font-size="14.00" fill="#000000">AuthService</text>
</g>
<!-- AuthService&#45;&gt;AppModule -->
<g id="edge16" class="edge">
<title>AuthService&#45;&gt;AppModule</title>
<path fill="none" stroke="#000000" d="M268,-122.2921C268,-144.2057 268,-178 268,-178 268,-178 1193.3321,-178 1193.3321,-178"/>
<polygon fill="#000000" stroke="#000000" points="1193.3321,-181.5001 1203.3321,-178 1193.332,-174.5001 1193.3321,-181.5001"/>
</g>
<!-- DataModelService -->
<g id="node18" class="node">
<title>DataModelService</title>
<ellipse fill="#fdb462" stroke="#000000" cx="107" cy="-104" rx="83.3635" ry="18"/>
<text text-anchor="middle" x="107" y="-99.8" font-family="Times,serif" font-size="14.00" fill="#000000">DataModelService</text>
</g>
<!-- DataModelService&#45;&gt;AppModule -->
<g id="edge17" class="edge">
<title>DataModelService&#45;&gt;AppModule</title>
<path fill="none" stroke="#000000" d="M107,-122.3228C107,-145.6602 107,-183 107,-183 107,-183 1193.1483,-183 1193.1483,-183"/>
<polygon fill="#000000" stroke="#000000" points="1193.1484,-186.5001 1203.1483,-183 1193.1483,-179.5001 1193.1484,-186.5001"/>
</g>
</g>
</svg>
