<?xml version="1.0" encoding="UTF-8" standalone="no"?>
<!DOCTYPE svg PUBLIC "-//W3C//DTD SVG 1.1//EN"
 "http://www.w3.org/Graphics/SVG/1.1/DTD/svg11.dtd">
<!-- Generated by graphviz version 2.40.1 (20161225.0304)
 -->
<!-- Title: dependencies Pages: 1 -->
<svg width="3089pt" height="284pt"
 viewBox="0.00 0.00 3089.00 284.00" xmlns="http://www.w3.org/2000/svg" xmlns:xlink="http://www.w3.org/1999/xlink">
<g id="graph0" class="graph" transform="scale(1 1) rotate(0) translate(4 280)">
<title>dependencies</title>
<polygon fill="#ffffff" stroke="transparent" points="-4,4 -4,-280 3085,-280 3085,4 -4,4"/>
<text text-anchor="start" x="1519.5091" y="-42.4" font-family="sans-serif" font-weight="bold" font-size="14.00" fill="#000000">Legend</text>
<polygon fill="#ffffb3" stroke="transparent" points="1306.5,-10 1306.5,-30 1326.5,-30 1326.5,-10 1306.5,-10"/>
<text text-anchor="start" x="1330.129" y="-15.4" font-family="sans-serif" font-size="14.00" fill="#000000"> &#160;Declarations</text>
<polygon fill="#8dd3c7" stroke="transparent" points="1419.5,-10 1419.5,-30 1439.5,-30 1439.5,-10 1419.5,-10"/>
<text text-anchor="start" x="1443.2251" y="-15.4" font-family="sans-serif" font-size="14.00" fill="#000000"> &#160;Module</text>
<polygon fill="#80b1d3" stroke="transparent" points="1505.5,-10 1505.5,-30 1525.5,-30 1525.5,-10 1505.5,-10"/>
<text text-anchor="start" x="1529.2812" y="-15.4" font-family="sans-serif" font-size="14.00" fill="#000000"> &#160;Bootstrap</text>
<polygon fill="#fdb462" stroke="transparent" points="1602.5,-10 1602.5,-30 1622.5,-30 1622.5,-10 1602.5,-10"/>
<text text-anchor="start" x="1626.1732" y="-15.4" font-family="sans-serif" font-size="14.00" fill="#000000"> &#160;Providers</text>
<polygon fill="#fb8072" stroke="transparent" points="1698.5,-10 1698.5,-30 1718.5,-30 1718.5,-10 1698.5,-10"/>
<text text-anchor="start" x="1722.2258" y="-15.4" font-family="sans-serif" font-size="14.00" fill="#000000"> &#160;Exports</text>
<g id="clust1" class="cluster">
<title>cluster_AppModule</title>
<polygon fill="none" stroke="#000000" stroke-dasharray="1,5" points="8,-70 8,-268 3073,-268 3073,-70 8,-70"/>
</g>
<g id="clust2" class="cluster">
<title>cluster_AppModule_declarations</title>
<polygon fill="none" stroke="#000000" points="716,-78 716,-130 3065,-130 3065,-78 716,-78"/>
</g>
<g id="clust20" class="cluster">
<title>cluster_AppModule_bootstrap</title>
<polygon fill="none" stroke="#000000" points="1462,-208 1462,-260 1586,-260 1586,-208 1462,-208"/>
</g>
<g id="clust21" class="cluster">
<title>cluster_AppModule_providers</title>
<polygon fill="none" stroke="#000000" points="16,-78 16,-130 708,-130 708,-78 16,-78"/>
</g>
<!-- AppComponent -->
<g id="node1" class="node">
<title>AppComponent</title>
<polygon fill="#ffffb3" stroke="#000000" points="3056.9399,-122 2951.0601,-122 2951.0601,-86 3056.9399,-86 3056.9399,-122"/>
<text text-anchor="middle" x="3004" y="-99.8" font-family="Times,serif" font-size="14.00" fill="#000000">AppComponent</text>
</g>
<!-- AppModule -->
<g id="node16" class="node">
<title>AppModule</title>
<polygon fill="#8dd3c7" stroke="#000000" points="1565.6571,-187 1562.6571,-191 1541.6571,-191 1538.6571,-187 1482.3429,-187 1482.3429,-151 1565.6571,-151 1565.6571,-187"/>
<text text-anchor="middle" x="1524" y="-164.8" font-family="Times,serif" font-size="14.00" fill="#000000">AppModule</text>
</g>
<!-- AppComponent&#45;&gt;AppModule -->
<g id="edge1" class="edge">
<title>AppComponent&#45;&gt;AppModule</title>
<path fill="none" stroke="#000000" d="M3004,-122.1532C3004,-145.7566 3004,-184 3004,-184 3004,-184 1575.9095,-184 1575.9095,-184"/>
<polygon fill="#000000" stroke="#000000" points="1575.9095,-180.5001 1565.9095,-184 1575.9095,-187.5001 1575.9095,-180.5001"/>
</g>
<!-- DataSummaryComponent -->
<g id="node2" class="node">
<title>DataSummaryComponent</title>
<polygon fill="#ffffb3" stroke="#000000" points="2933.1979,-122 2770.8021,-122 2770.8021,-86 2933.1979,-86 2933.1979,-122"/>
<text text-anchor="middle" x="2852" y="-99.8" font-family="Times,serif" font-size="14.00" fill="#000000">DataSummaryComponent</text>
</g>
<!-- DataSummaryComponent&#45;&gt;AppModule -->
<g id="edge2" class="edge">
<title>DataSummaryComponent&#45;&gt;AppModule</title>
<path fill="none" stroke="#000000" d="M2852,-122.0109C2852,-144.4852 2852,-180 2852,-180 2852,-180 1575.9378,-180 1575.9378,-180"/>
<polygon fill="#000000" stroke="#000000" points="1575.9378,-176.5001 1565.9378,-180 1575.9377,-183.5001 1575.9378,-176.5001"/>
</g>
<!-- DocListComponent -->
<g id="node3" class="node">
<title>DocListComponent</title>
<polygon fill="#ffffb3" stroke="#000000" points="2753.4327,-122 2626.5673,-122 2626.5673,-86 2753.4327,-86 2753.4327,-122"/>
<text text-anchor="middle" x="2690" y="-99.8" font-family="Times,serif" font-size="14.00" fill="#000000">DocListComponent</text>
</g>
<!-- DocListComponent&#45;&gt;AppModule -->
<g id="edge3" class="edge">
<title>DocListComponent&#45;&gt;AppModule</title>
<path fill="none" stroke="#000000" d="M2690,-122.0449C2690,-143.6623 2690,-177 2690,-177 2690,-177 1575.8423,-177 1575.8423,-177"/>
<polygon fill="#000000" stroke="#000000" points="1575.8424,-173.5001 1565.8423,-177 1575.8423,-180.5001 1575.8424,-173.5001"/>
</g>
<!-- DocumentFormComponent -->
<g id="node4" class="node">
<title>DocumentFormComponent</title>
<polygon fill="#ffffb3" stroke="#000000" points="2608.9832,-122 2439.0168,-122 2439.0168,-86 2608.9832,-86 2608.9832,-122"/>
<text text-anchor="middle" x="2524" y="-99.8" font-family="Times,serif" font-size="14.00" fill="#000000">DocumentFormComponent</text>
</g>
<!-- DocumentFormComponent&#45;&gt;AppModule -->
<g id="edge4" class="edge">
<title>DocumentFormComponent&#45;&gt;AppModule</title>
<path fill="none" stroke="#000000" d="M2524,-122.1289C2524,-142.5724 2524,-173 2524,-173 2524,-173 1575.6956,-173 1575.6956,-173"/>
<polygon fill="#000000" stroke="#000000" points="1575.6956,-169.5001 1565.6956,-173 1575.6956,-176.5001 1575.6956,-169.5001"/>
</g>
<!-- DocumentsComponent -->
<g id="node5" class="node">
<title>DocumentsComponent</title>
<polygon fill="#ffffb3" stroke="#000000" points="2420.594,-122 2275.406,-122 2275.406,-86 2420.594,-86 2420.594,-122"/>
<text text-anchor="middle" x="2348" y="-99.8" font-family="Times,serif" font-size="14.00" fill="#000000">DocumentsComponent</text>
</g>
<!-- DocumentsComponent&#45;&gt;AppModule -->
<g id="edge5" class="edge">
<title>DocumentsComponent&#45;&gt;AppModule</title>
<path fill="none" stroke="#000000" d="M2348,-122.1061C2348,-141.3391 2348,-169 2348,-169 2348,-169 1575.7106,-169 1575.7106,-169"/>
<polygon fill="#000000" stroke="#000000" points="1575.7107,-165.5001 1565.7106,-169 1575.7106,-172.5001 1575.7107,-165.5001"/>
</g>
<!-- ImportControlComponent -->
<g id="node6" class="node">
<title>ImportControlComponent</title>
<polygon fill="#ffffb3" stroke="#000000" points="2257.2133,-122 2094.7867,-122 2094.7867,-86 2257.2133,-86 2257.2133,-122"/>
<text text-anchor="middle" x="2176" y="-99.8" font-family="Times,serif" font-size="14.00" fill="#000000">ImportControlComponent</text>
</g>
<!-- ImportControlComponent&#45;&gt;AppModule -->
<g id="edge6" class="edge">
<title>ImportControlComponent&#45;&gt;AppModule</title>
<path fill="none" stroke="#000000" d="M2176,-122.2667C2176,-140.5552 2176,-166 2176,-166 2176,-166 1575.7774,-166 1575.7774,-166"/>
<polygon fill="#000000" stroke="#000000" points="1575.7774,-162.5001 1565.7774,-166 1575.7773,-169.5001 1575.7774,-162.5001"/>
</g>
<!-- NavigationComponent -->
<g id="node7" class="node">
<title>NavigationComponent</title>
<polygon fill="#ffffb3" stroke="#000000" points="2076.5407,-122 1933.4593,-122 1933.4593,-86 2076.5407,-86 2076.5407,-122"/>
<text text-anchor="middle" x="2005" y="-99.8" font-family="Times,serif" font-size="14.00" fill="#000000">NavigationComponent</text>
</g>
<!-- NavigationComponent&#45;&gt;AppModule -->
<g id="edge7" class="edge">
<title>NavigationComponent&#45;&gt;AppModule</title>
<path fill="none" stroke="#000000" d="M2005,-122.0336C2005,-139.0597 2005,-162 2005,-162 2005,-162 1575.8442,-162 1575.8442,-162"/>
<polygon fill="#000000" stroke="#000000" points="1575.8442,-158.5001 1565.8442,-162 1575.8441,-165.5001 1575.8442,-158.5001"/>
</g>
<!-- OverviewComponent -->
<g id="node8" class="node">
<title>OverviewComponent</title>
<polygon fill="#ffffb3" stroke="#000000" points="1915.0268,-122 1778.9732,-122 1778.9732,-86 1915.0268,-86 1915.0268,-122"/>
<text text-anchor="middle" x="1847" y="-99.8" font-family="Times,serif" font-size="14.00" fill="#000000">OverviewComponent</text>
</g>
<!-- OverviewComponent&#45;&gt;AppModule -->
<g id="edge8" class="edge">
<title>OverviewComponent&#45;&gt;AppModule</title>
<path fill="none" stroke="#000000" d="M1847,-122.0091C1847,-138.0494 1847,-159 1847,-159 1847,-159 1575.8955,-159 1575.8955,-159"/>
<polygon fill="#000000" stroke="#000000" points="1575.8955,-155.5001 1565.8955,-159 1575.8954,-162.5001 1575.8955,-155.5001"/>
</g>
<!-- PdfFrameComponent -->
<g id="node9" class="node">
<title>PdfFrameComponent</title>
<polygon fill="#ffffb3" stroke="#000000" points="1760.0394,-122 1623.9606,-122 1623.9606,-86 1760.0394,-86 1760.0394,-122"/>
<text text-anchor="middle" x="1692" y="-99.8" font-family="Times,serif" font-size="14.00" fill="#000000">PdfFrameComponent</text>
</g>
<!-- PdfFrameComponent&#45;&gt;AppModule -->
<g id="edge9" class="edge">
<title>PdfFrameComponent&#45;&gt;AppModule</title>
<path fill="none" stroke="#000000" d="M1692,-122.1243C1692,-136.7832 1692,-155 1692,-155 1692,-155 1575.9601,-155 1575.9601,-155"/>
<polygon fill="#000000" stroke="#000000" points="1575.9602,-151.5001 1565.9601,-155 1575.9601,-158.5001 1575.9602,-151.5001"/>
</g>
<!-- PdfFrameScanComponent -->
<g id="node10" class="node">
<title>PdfFrameScanComponent</title>
<polygon fill="#ffffb3" stroke="#000000" points="1605.7506,-122 1442.2494,-122 1442.2494,-86 1605.7506,-86 1605.7506,-122"/>
<text text-anchor="middle" x="1524" y="-99.8" font-family="Times,serif" font-size="14.00" fill="#000000">PdfFrameScanComponent</text>
</g>
<!-- PdfFrameScanComponent&#45;&gt;AppModule -->
<g id="edge10" class="edge">
<title>PdfFrameScanComponent&#45;&gt;AppModule</title>
<path fill="none" stroke="#000000" d="M1524,-122.1061C1524,-122.1061 1524,-140.991 1524,-140.991"/>
<polygon fill="#000000" stroke="#000000" points="1520.5001,-140.9909 1524,-150.991 1527.5001,-140.991 1520.5001,-140.9909"/>
</g>
<!-- ScanComponent -->
<g id="node11" class="node">
<title>ScanComponent</title>
<polygon fill="#ffffb3" stroke="#000000" points="1424.0452,-122 1315.9548,-122 1315.9548,-86 1424.0452,-86 1424.0452,-122"/>
<text text-anchor="middle" x="1370" y="-99.8" font-family="Times,serif" font-size="14.00" fill="#000000">ScanComponent</text>
</g>
<!-- ScanComponent&#45;&gt;AppModule -->
<g id="edge11" class="edge">
<title>ScanComponent&#45;&gt;AppModule</title>
<path fill="none" stroke="#000000" d="M1370,-122.1243C1370,-136.7832 1370,-155 1370,-155 1370,-155 1472.3254,-155 1472.3254,-155"/>
<polygon fill="#000000" stroke="#000000" points="1472.3254,-158.5001 1482.3254,-155 1472.3253,-151.5001 1472.3254,-158.5001"/>
</g>
<!-- SigninComponent -->
<g id="node12" class="node">
<title>SigninComponent</title>
<polygon fill="#ffffb3" stroke="#000000" points="1297.8962,-122 1180.1038,-122 1180.1038,-86 1297.8962,-86 1297.8962,-122"/>
<text text-anchor="middle" x="1239" y="-99.8" font-family="Times,serif" font-size="14.00" fill="#000000">SigninComponent</text>
</g>
<!-- SigninComponent&#45;&gt;AppModule -->
<g id="edge12" class="edge">
<title>SigninComponent&#45;&gt;AppModule</title>
<path fill="none" stroke="#000000" d="M1239,-122.0091C1239,-138.0494 1239,-159 1239,-159 1239,-159 1472.2533,-159 1472.2533,-159"/>
<polygon fill="#000000" stroke="#000000" points="1472.2534,-162.5001 1482.2533,-159 1472.2533,-155.5001 1472.2534,-162.5001"/>
</g>
<!-- SignupComponent -->
<g id="node13" class="node">
<title>SignupComponent</title>
<polygon fill="#ffffb3" stroke="#000000" points="1162.5056,-122 1041.4944,-122 1041.4944,-86 1162.5056,-86 1162.5056,-122"/>
<text text-anchor="middle" x="1102" y="-99.8" font-family="Times,serif" font-size="14.00" fill="#000000">SignupComponent</text>
</g>
<!-- SignupComponent&#45;&gt;AppModule -->
<g id="edge13" class="edge">
<title>SignupComponent&#45;&gt;AppModule</title>
<path fill="none" stroke="#000000" d="M1102,-122.0336C1102,-139.0597 1102,-162 1102,-162 1102,-162 1471.9942,-162 1471.9942,-162"/>
<polygon fill="#000000" stroke="#000000" points="1471.9943,-165.5001 1481.9942,-162 1471.9942,-158.5001 1471.9943,-165.5001"/>
</g>
<!-- ToDoListComponent -->
<g id="node14" class="node">
<title>ToDoListComponent</title>
<polygon fill="#ffffb3" stroke="#000000" points="1023.7702,-122 888.2298,-122 888.2298,-86 1023.7702,-86 1023.7702,-122"/>
<text text-anchor="middle" x="956" y="-99.8" font-family="Times,serif" font-size="14.00" fill="#000000">ToDoListComponent</text>
</g>
<!-- ToDoListComponent&#45;&gt;AppModule -->
<g id="edge14" class="edge">
<title>ToDoListComponent&#45;&gt;AppModule</title>
<path fill="none" stroke="#000000" d="M956,-122.2667C956,-140.5552 956,-166 956,-166 956,-166 1472.2336,-166 1472.2336,-166"/>
<polygon fill="#000000" stroke="#000000" points="1472.2336,-169.5001 1482.2336,-166 1472.2336,-162.5001 1472.2336,-169.5001"/>
</g>
<!-- UserProfileComponent -->
<g id="node15" class="node">
<title>UserProfileComponent</title>
<polygon fill="#ffffb3" stroke="#000000" points="869.8585,-122 724.1415,-122 724.1415,-86 869.8585,-86 869.8585,-122"/>
<text text-anchor="middle" x="797" y="-99.8" font-family="Times,serif" font-size="14.00" fill="#000000">UserProfileComponent</text>
</g>
<!-- UserProfileComponent&#45;&gt;AppModule -->
<g id="edge15" class="edge">
<title>UserProfileComponent&#45;&gt;AppModule</title>
<path fill="none" stroke="#000000" d="M797,-122.1061C797,-141.3391 797,-169 797,-169 797,-169 1472.3022,-169 1472.3022,-169"/>
<polygon fill="#000000" stroke="#000000" points="1472.3022,-172.5001 1482.3022,-169 1472.3021,-165.5001 1472.3022,-172.5001"/>
</g>
<!-- AppComponent  -->
<g id="node17" class="node">
<title>AppComponent </title>
<polygon fill="#80b1d3" stroke="#000000" points="1578.439,-252 1469.561,-252 1469.561,-216 1578.439,-216 1578.439,-252"/>
<text text-anchor="middle" x="1524" y="-229.8" font-family="Times,serif" font-size="14.00" fill="#000000">AppComponent </text>
</g>
<!-- AppModule&#45;&gt;AppComponent  -->
<g id="edge16" class="edge">
<title>AppModule&#45;&gt;AppComponent </title>
<path fill="none" stroke="#000000" stroke-dasharray="1,5" d="M1524,-187.1061C1524,-187.1061 1524,-205.991 1524,-205.991"/>
<polygon fill="#000000" stroke="#000000" points="1520.5001,-205.9909 1524,-215.991 1527.5001,-205.991 1520.5001,-205.9909"/>
</g>
<!-- AuthService -->
<g id="node18" class="node">
<title>AuthService</title>
<ellipse fill="#fdb462" stroke="#000000" cx="641" cy="-104" rx="59.1083" ry="18"/>
<text text-anchor="middle" x="641" y="-99.8" font-family="Times,serif" font-size="14.00" fill="#000000">AuthService</text>
</g>
<!-- AuthService&#45;&gt;AppModule -->
<g id="edge17" class="edge">
<title>AuthService&#45;&gt;AppModule</title>
<path fill="none" stroke="#000000" d="M641,-122.1289C641,-142.5724 641,-173 641,-173 641,-173 1472.3007,-173 1472.3007,-173"/>
<polygon fill="#000000" stroke="#000000" points="1472.3008,-176.5001 1482.3007,-173 1472.3007,-169.5001 1472.3008,-176.5001"/>
</g>
<!-- DataModelService -->
<g id="node19" class="node">
<title>DataModelService</title>
<ellipse fill="#fdb462" stroke="#000000" cx="480" cy="-104" rx="83.3635" ry="18"/>
<text text-anchor="middle" x="480" y="-99.8" font-family="Times,serif" font-size="14.00" fill="#000000">DataModelService</text>
</g>
<!-- DataModelService&#45;&gt;AppModule -->
<g id="edge18" class="edge">
<title>DataModelService&#45;&gt;AppModule</title>
<path fill="none" stroke="#000000" d="M480,-122.0449C480,-143.6623 480,-177 480,-177 480,-177 1472.1059,-177 1472.1059,-177"/>
<polygon fill="#000000" stroke="#000000" points="1472.1059,-180.5001 1482.1059,-177 1472.1059,-173.5001 1472.1059,-180.5001"/>
</g>
<!-- DocumentsService -->
<g id="node20" class="node">
<title>DocumentsService</title>
<ellipse fill="#fdb462" stroke="#000000" cx="295" cy="-104" rx="83.947" ry="18"/>
<text text-anchor="middle" x="295" y="-99.8" font-family="Times,serif" font-size="14.00" fill="#000000">DocumentsService</text>
</g>
<!-- DocumentsService&#45;&gt;AppModule -->
<g id="edge19" class="edge">
<title>DocumentsService&#45;&gt;AppModule</title>
<path fill="none" stroke="#000000" d="M295,-122.0109C295,-144.4852 295,-180 295,-180 295,-180 1472.0506,-180 1472.0506,-180"/>
<polygon fill="#000000" stroke="#000000" points="1472.0506,-183.5001 1482.0506,-180 1472.0505,-176.5001 1472.0506,-183.5001"/>
</g>
<!-- UserProfileService -->
<g id="node21" class="node">
<title>UserProfileService</title>
<ellipse fill="#fdb462" stroke="#000000" cx="109" cy="-104" rx="84.5015" ry="18"/>
<text text-anchor="middle" x="109" y="-99.8" font-family="Times,serif" font-size="14.00" fill="#000000">UserProfileService</text>
</g>
<!-- UserProfileService&#45;&gt;AppModule -->
<g id="edge20" class="edge">
<title>UserProfileService&#45;&gt;AppModule</title>
<path fill="none" stroke="#000000" d="M109,-122.1532C109,-145.7566 109,-184 109,-184 109,-184 1472.0358,-184 1472.0358,-184"/>
<polygon fill="#000000" stroke="#000000" points="1472.0358,-187.5001 1482.0358,-184 1472.0357,-180.5001 1472.0358,-187.5001"/>
</g>
</g>
</svg>
